<svg xmlns="http://www.w3.org/2000/svg" xmlns:xlink="http://www.w3.org/1999/xlink" viewBox="0 0 114.66 83.13"><defs><style>.cls-1{fill:url(#linear-gradient);}.cls-2{fill:url(#linear-gradient-2);}.cls-3{fill:url(#linear-gradient-3);}.cls-4{fill:url(#linear-gradient-4);}.cls-5{fill:url(#linear-gradient-5);}.cls-6{fill:url(#linear-gradient-6);}.cls-7{fill:url(#linear-gradient-7);}</style><linearGradient id="linear-gradient" x1="32.76" y1="-235.39" x2="32.76" y2="-266.01" gradientTransform="matrix(1, 0, 0, -1, 0, -235.39)" gradientUnits="userSpaceOnUse"><stop offset="0" stop-color="#9ea8e1"/><stop offset="1" stop-color="#d0d7f1"/></linearGradient><linearGradient id="linear-gradient-2" x1="83.95" y1="-252.89" x2="83.95" y2="-283.51" xlink:href="#linear-gradient"/><linearGradient id="linear-gradient-3" x1="32.77" y1="-274.76" x2="32.77" y2="-283.51" xlink:href="#linear-gradient"/><linearGradient id="linear-gradient-4" x1="94.19" y1="-287.89" x2="94.19" y2="-318.51" xlink:href="#linear-gradient"/><linearGradient id="linear-gradient-5" x1="32.76" y1="-287.89" x2="32.76" y2="-296.64" xlink:href="#linear-gradient"/><linearGradient id="linear-gradient-6" x1="40.95" y1="-305.39" x2="40.95" y2="-314.14" xlink:href="#linear-gradient"/><linearGradient id="linear-gradient-7" x1="8.19" y1="-305.39" x2="8.19" y2="-314.14" xlink:href="#linear-gradient"/></defs><g id="Layer_2" data-name="Layer 2"><g id="Layer_1-2" data-name="Layer 1"><path class="cls-1" d="M4.1,30.62H51.19a13.88,13.88,0,0,0,10.13-4.48,16.06,16.06,0,0,0,0-21.66A13.88,13.88,0,0,0,51.19,0H45.05a4,4,0,0,0-2.9,1.28A4.54,4.54,0,0,0,41,4.38a4.53,4.53,0,0,0,1.2,3.09,4,4,0,0,0,2.9,1.28h6.14a5.94,5.94,0,0,1,4.34,1.92,6.88,6.88,0,0,1,0,9.28,6,6,0,0,1-4.34,1.93H4.1a4,4,0,0,0-2.9,1.28,4.58,4.58,0,0,0,0,6.18A4,4,0,0,0,4.1,30.62Z"/><path class="cls-2" d="M94.18,26.25h6.15a5.94,5.94,0,0,1,4.34,1.92,6.88,6.88,0,0,1,0,9.28,6,6,0,0,1-4.34,1.93h-43a4,4,0,0,0-2.9,1.28,4.58,4.58,0,0,0,0,6.18,4,4,0,0,0,2.9,1.28h43a13.88,13.88,0,0,0,10.13-4.48,16.06,16.06,0,0,0,0-21.66,13.88,13.88,0,0,0-10.13-4.48H94.18a4,4,0,0,0-2.89,1.28,4.59,4.59,0,0,0,0,6.19A4,4,0,0,0,94.18,26.25Z"/><path class="cls-3" d="M24.57,39.38a4,4,0,0,0-2.9,1.28,4.61,4.61,0,0,0,0,6.18,4,4,0,0,0,2.9,1.28H41a4,4,0,0,0,2.9-1.28,4.58,4.58,0,0,0,0-6.18A4,4,0,0,0,41,39.38Z"/><path class="cls-4" d="M100.33,52.5H77.81a4,4,0,0,0-2.9,1.28,4.59,4.59,0,0,0,0,6.19,4,4,0,0,0,2.9,1.28h22.52a5.94,5.94,0,0,1,4.34,1.92,6.88,6.88,0,0,1,0,9.28,6,6,0,0,1-4.34,1.93H94.19a4,4,0,0,0-2.9,1.28,4.58,4.58,0,0,0,0,6.18,4,4,0,0,0,2.9,1.28h6.14a13.88,13.88,0,0,0,10.13-4.48,16.06,16.06,0,0,0,0-21.66A13.88,13.88,0,0,0,100.33,52.5Z"/><path class="cls-5" d="M61.43,52.5H4.1a4,4,0,0,0-2.9,1.28A4.59,4.59,0,0,0,1.2,60a4,4,0,0,0,2.9,1.28H61.43A4,4,0,0,0,64.32,60a4.59,4.59,0,0,0,0-6.19A4,4,0,0,0,61.43,52.5Z"/><path class="cls-6" d="M53.23,70H28.66a4,4,0,0,0-2.89,1.28,4.59,4.59,0,0,0,0,6.19,4,4,0,0,0,2.89,1.28H53.23a4,4,0,0,0,2.9-1.28,4.59,4.59,0,0,0,0-6.19A4,4,0,0,0,53.23,70Z"/><path class="cls-7" d="M12.29,70H4.1a4,4,0,0,0-2.9,1.28,4.59,4.59,0,0,0,0,6.19,4,4,0,0,0,2.9,1.28h8.19a4,4,0,0,0,2.89-1.28,4.59,4.59,0,0,0,0-6.19A4,4,0,0,0,12.29,70Z"/></g></g></svg>